<?xml version="1.0" standalone="no"?><svg xmlns="http://www.w3.org/2000/svg" viewBox="0 0 1440 320"><path fill="#c3c3c3" fill-opacity="1" d="M0,32L6.2,69.3C12.3,107,25,181,37,213.3C49.2,245,62,235,74,208C86.2,181,98,139,111,128C123.1,117,135,139,148,138.7C160,139,172,117,185,138.7C196.9,160,209,224,222,256C233.8,288,246,288,258,288C270.8,288,283,288,295,272C307.7,256,320,224,332,192C344.6,160,357,128,369,138.7C381.5,149,394,203,406,192C418.5,181,431,107,443,74.7C455.4,43,468,53,480,96C492.3,139,505,213,517,224C529.2,235,542,181,554,181.3C566.2,181,578,235,591,218.7C603.1,203,615,117,628,117.3C640,117,652,203,665,197.3C676.9,192,689,96,702,80C713.8,64,726,128,738,154.7C750.8,181,763,171,775,181.3C787.7,192,800,224,812,229.3C824.6,235,837,213,849,176C861.5,139,874,85,886,74.7C898.5,64,911,96,923,117.3C935.4,139,948,149,960,170.7C972.3,192,985,224,997,208C1009.2,192,1022,128,1034,96C1046.2,64,1058,64,1071,96C1083.1,128,1095,192,1108,208C1120,224,1132,192,1145,176C1156.9,160,1169,160,1182,154.7C1193.8,149,1206,139,1218,112C1230.8,85,1243,43,1255,74.7C1267.7,107,1280,213,1292,234.7C1304.6,256,1317,192,1329,165.3C1341.5,139,1354,149,1366,165.3C1378.5,181,1391,203,1403,202.7C1415.4,203,1428,181,1434,170.7L1440,160L1440,320L1433.8,320C1427.7,320,1415,320,1403,320C1390.8,320,1378,320,1366,320C1353.8,320,1342,320,1329,320C1316.9,320,1305,320,1292,320C1280,320,1268,320,1255,320C1243.1,320,1231,320,1218,320C1206.2,320,1194,320,1182,320C1169.2,320,1157,320,1145,320C1132.3,320,1120,320,1108,320C1095.4,320,1083,320,1071,320C1058.5,320,1046,320,1034,320C1021.5,320,1009,320,997,320C984.6,320,972,320,960,320C947.7,320,935,320,923,320C910.8,320,898,320,886,320C873.8,320,862,320,849,320C836.9,320,825,320,812,320C800,320,788,320,775,320C763.1,320,751,320,738,320C726.2,320,714,320,702,320C689.2,320,677,320,665,320C652.3,320,640,320,628,320C615.4,320,603,320,591,320C578.5,320,566,320,554,320C541.5,320,529,320,517,320C504.6,320,492,320,480,320C467.7,320,455,320,443,320C430.8,320,418,320,406,320C393.8,320,382,320,369,320C356.9,320,345,320,332,320C320,320,308,320,295,320C283.1,320,271,320,258,320C246.2,320,234,320,222,320C209.2,320,197,320,185,320C172.3,320,160,320,148,320C135.4,320,123,320,111,320C98.5,320,86,320,74,320C61.5,320,49,320,37,320C24.6,320,12,320,6,320L0,320Z"></path></svg>