<?xml version="1.0" standalone="no"?><svg xmlns="http://www.w3.org/2000/svg" viewBox="0 0 1440 320"><path fill="#0099ff" fill-opacity="0.1" d="M0,192L60,32L120,192L180,288L240,96L300,128L360,32L420,64L480,128L540,288L600,64L660,160L720,64L780,160L840,128L900,224L960,64L1020,32L1080,160L1140,128L1200,288L1260,96L1320,160L1380,128L1440,64L1440,0L1380,0L1320,0L1260,0L1200,0L1140,0L1080,0L1020,0L960,0L900,0L840,0L780,0L720,0L660,0L600,0L540,0L480,0L420,0L360,0L300,0L240,0L180,0L120,0L60,0L0,0Z"></path></svg>