<svg fill="#ffffff" xmlns="http://www.w3.org/2000/svg"  viewBox="0 0 32 32" width="32px" height="32px"><path d="M23,16.8c0-1.84-1.09-3.37-3.04-3.37c-1.89,0-3.18,1.41-3.18,3.29c0,1.94,1.21,3.28,3.18,3.28c1.49,0,2.46-0.67,2.92-2.1	h-1.51c-0.17,0.53-0.83,0.81-1.35,0.81c-1.01,0-1.53-0.59-1.53-1.58h4.49C22.99,17.03,23,16.91,23,16.8z M18.49,16.05	c0.05-0.82,0.59-1.34,1.41-1.34c0.87,0,1.3,0.51,1.37,1.34H18.49z M14.64,15.16c0.77-0.38,1.17-0.8,1.17-1.66	c0-1.72-1.27-2.13-2.75-2.13H9v8.61h4.18c1.56-0.01,3.03-0.76,3.03-2.51C16.21,16.38,15.69,15.46,14.64,15.16z M10.9,12.69h1.78	c0.67,0,1.29,0.19,1.29,0.98c0,0.73-0.48,1.03-1.16,1.03H10.9V12.69z M12.92,18.5h-2.03v-2.37h2.07c0.83,0,1.36,0.35,1.36,1.24	C14.32,18.23,13.69,18.5,12.92,18.5z"/><rect width="3.48" height=".85" x="18.14" y="12"/><path d="M5,5v22h22V5H5z M7,7h18v18H7V7z"/></svg>